<?xml version="1.0" encoding="UTF-8"?>
<svg id="Layer_2" xmlns="http://www.w3.org/2000/svg" viewBox="0 0 399 399">
  <defs>
    <style>
      .cls-1 { fill: none; }
      .cls-2 { fill: currentColor; }
    </style>
  </defs>
  <g id="Layer_1-2">
    <path class="cls-1" d="M398.96,199.7c0,65.84,0,131.68.04,197.52,0,1.46-.33,1.79-1.79,1.79-131.81-.04-263.61-.04-395.42,0-1.46,0-1.79-.33-1.79-1.79C.04,265.4.04,133.6,0,1.79,0,.33.33,0,1.79,0c131.81.04,263.61.04,395.42,0,1.46,0,1.79.33,1.79,1.79-.04,65.97-.04,131.94-.04,197.91Z"/>
    <path class="cls-2" d="M380.34,132.42c-4.39-18.17-25.99-30.76-43.94-24.95-18.9,6.12-29.65,24.46-24.95,43.94.26,1.06.47,2.12.66,3.2.67,7.09.75,14.21.16,21.31-.81,4.25-1.9,8.42-3.31,12.51-1.7,3.4-3.62,6.69-5.75,9.84-1.24,1.39-2.53,2.72-3.89,3.99-.86.54-1.74,1.06-2.64,1.56-1.2.37-2.41.69-3.63.97-.95.04-1.89.06-2.84.05-.23-.06-.46-.14-.7-.21-.72-.4-1.42-.83-2.11-1.27-1.9-1.75-3.71-3.6-5.41-5.56-4.81-6.92-8.77-14.39-12.24-22.08-6.97-17.59-11.88-35.95-16-54.39-3.22-14.43-4.52-30.43-11.84-43.55-7.81-14.01-24.87-23.5-40.87-22.97-16.99.57-32.43,9.24-40.85,24.22-4.02,7.15-6.78,16.13-9.45,23.97-2.02,5.93-3.86,11.93-5.59,17.95-2.02,7.04-3.89,14.12-5.66,21.22-5.69-13.85-11.54-27.63-17.76-41.25-6.31-13.79-13.04-27.01-22.81-38.72-15.06-18.04-43.99-22.09-60.88-3.81-12.65,13.68-16.45,29.6-17.62,47.75-1.29,19.94-.42,40.09-.51,60.06-.24,50.3-2.14,100.57-5.04,150.79-1.08,18.69,17.2,36.55,35.72,35.72,20.27-.91,34.56-15.7,35.72-35.72,2.04-35.39,3.6-70.81,4.41-106.25.6,1.48,1.2,2.96,1.81,4.43,8.62,20.9,16.66,43.14,28.08,62.77,6.2,10.66,18.54,19.02,31.28,18.44,12.62-.57,24.51-6.75,30.96-17.84,2.05-3.53,3.52-7.56,4.37-11.58,1.25-5.93,2.21-11.93,3.27-17.89,3.24-18.24,6.59-36.46,10.38-54.6,2.43,6.34,5.05,12.62,7.91,18.83,9.94,21.58,25.71,44.17,47.77,54.63,18.14,8.6,37.44,10.56,57.06,5.43,21.51-5.62,37.97-19.96,50.47-37.78,20.39-29.07,24.5-69.09,16.28-103.15Z"/>
  </g>
</svg>
